# xmcd
#
# Track frame offsets:
#	150
#	18277
#	33473
#	50773
#	66455
#	82493
#	98355
#	115859
#	135036
#	148957
#	165452
#	180450
#	195070
#
# Disc length: 2790 seconds
#
# Revision: 0
# Processed by: cddbd v1.5.2PL0 Copyright (c) Steve Scherf et al.
# Submitted via: EasyCDDAExtractor 11.5.0.1
#
DISCID=a80ae40d
DTITLE=Lexington Bridge - The Vibe
DYEAR=2007
DGENRE=
TTITLE0=Real man feat Snoop Dogg
TTITLE1=Your forgivenness
TTITLE2=Kick back
TTITLE3=Hook up
TTITLE4=Tear it up
TTITLE5=Alesha
TTITLE6=You are my everything
TTITLE7=Everything I am
TTITLE8=Other girls
TTITLE9=I just can´t hate you
TTITLE10=Call me
TTITLE11=Go on and go
TTITLE12=Vibrate
EXTD=
EXTT0=
EXTT1=
EXTT2=
EXTT3=
EXTT4=
EXTT5=
EXTT6=
EXTT7=
EXTT8=
EXTT9=
EXTT10=
EXTT11=
EXTT12=
PLAYORDER=
